<?xml version="1.0" encoding="UTF-8"?>
<svg width="130" height="35" version="1.1" viewBox="0 0 34.395834 9.2604174" xmlns="http://www.w3.org/2000/svg" xmlns:xlink="http://www.w3.org/1999/xlink">
 <defs>
  <linearGradient id="linearGradient2741" x1="159.69" x2="150.71" y1="949.06" y2="964.93" gradientUnits="userSpaceOnUse" xlink:href="#linearGradient7353"/>
  <linearGradient id="linearGradient7353">
   <stop stop-color="#0092d0" offset="0"/>
   <stop stop-color="#00acf5" offset="1"/>
  </linearGradient>
  <linearGradient id="linearGradient2739" x1="116.78" x2="110.13" y1="949.83" y2="963.9" gradientUnits="userSpaceOnUse">
   <stop stop-color="#0092d0" offset="0"/>
   <stop stop-color="#00a9f0" offset="1"/>
  </linearGradient>
  <linearGradient id="linearGradient2737" x1="121.62" x2="108.15" y1="947.54" y2="967.21" gradientUnits="userSpaceOnUse" xlink:href="#linearGradient7353"/>
  <linearGradient id="linearGradient2735" x1="233.31" x2="226.13" y1="949.02" y2="962.87" gradientUnits="userSpaceOnUse">
   <stop stop-color="#0092d0" offset="0"/>
   <stop stop-color="#00a5eb" offset="1"/>
  </linearGradient>
  <linearGradient id="linearGradient2733" x1="133.73" x2="122.16" y1="947.78" y2="966.71" gradientUnits="userSpaceOnUse" xlink:href="#linearGradient7353"/>
 </defs>
 <g transform="translate(0 -287.74)">
  <g transform="matrix(.33277 0 0 .33277 .23055 199.32)">
   <g transform="matrix(1.5968 0 0 1.5968 89.174 205.1)">
    <g transform="matrix(.1089 0 0 .1089 -39.65 -106.84)" stroke-width=".9375">
     <path d="m-131.1 1360.8c0.0937-0.8438 0.84375-1.2188 1.4062-1.2188s12.844-0.9375 12.844-0.9375 8.5312-8.5312 9.5625-9.375c0.9375-0.9375 2.7188-0.6562 3.4688-0.4687 0.0937 0 1.875 0.5625 4.7813 1.5 2.9062-8.3438 7.875-15.938 16.781-15.938h0.84375c2.4375-3.1875 5.625-4.6875 8.25-4.6875 20.625 0 30.562 25.781 33.656 38.906 8.0625 2.5313 13.781 4.2188 14.438 4.5 4.5 1.4063 4.5938 1.5 5.1562 5.7188 0.46875 3.1875 12.187 93.844 12.187 93.844l-91.219 17.062-49.5-10.688c-0.0937-0.1875 17.25-117.38 17.344-118.22zm37.125-9.1875c2.25 0.6562 4.9688 1.5 7.6875 2.4375v-1.6875c0-5.0625 0.65625-9.1875 1.875-12.469-4.6875 0.5625-7.5938 5.7188-9.5625 11.719zm15.281-10.688c-1.2188 3.1875-2.0625 7.6875-2.0625 13.875v0.9375c5.0625 1.5937 10.406 3.1875 15.938 4.9687-3.0938-11.812-9-17.625-13.875-19.781zm6-5.8125c-0.9375 0-1.875 0.375-2.625 0.9375 6.6562 3.0937 13.688 10.875 16.594 26.625 4.4062 1.4062 8.625 2.625 12.656 3.9375-3.375-12-11.812-31.5-26.625-31.5z" fill="#00a9f0"/>
     <path d="m-129.69 1359.4c0.5625 0 12.844-0.9375 12.844-0.9375s8.5312-8.5312 9.5625-9.375c0.375-0.375 0.84375-0.5625 1.2188-0.5625l6.8438 141.19-49.5-10.688s17.344-117.38 17.438-118.22c0.375-0.8438 1.0312-1.2188 1.5938-1.4063z" fill="#0092d0"/>
    </g>
    <g fill="#0092d0">
     <g stroke="#f0f0f0" stroke-width=".25966">
      <g transform="matrix(.26692 0 0 .26692 -59.019 -206.83)" aria-label="store">
       <path d="m128.5 967.72q-3.0493 0-5.6327-0.93172-2.5834-0.97408-4.4892-2.287l1.6093-2.287q1.7787 1.2705 3.8963 2.0328 2.1599 0.76232 5.0398 0.76232 2.6258 0 3.8963-0.93172 1.3129-0.97408 1.3129-2.287 0-0.59292-0.21175-1.1011-0.21176-0.50821-0.93173-0.97407-0.67762-0.46587-1.9482-0.88938t-3.3457-0.84702q-4.0234-0.84702-6.0562-2.2446-1.9905-1.4399-1.9905-3.7692 0-1.2282 0.55056-2.287 0.55057-1.1011 1.6094-1.8634 1.1011-0.80467 2.6681-1.2282 1.6094-0.46586 3.7269-0.46586 2.3717 0 4.5739 0.80467 2.2022 0.76232 3.7269 1.8211l-1.694 2.2446q-1.4399-0.97407-3.1763-1.567-1.7364-0.59291-3.7269-0.59291-2.6258 0-3.6845 0.88937-1.0588 0.88937-1.0588 2.0752 0 1.3552 1.3976 2.0752 1.3976 0.67761 4.5739 1.3552 2.5834 0.55056 4.2351 1.1858 1.6517 0.59292 2.5834 1.3552 0.97407 0.76231 1.3129 1.694 0.38116 0.93172 0.38116 2.1176 0 1.2705-0.59291 2.3717-0.59292 1.1011-1.7788 1.9482-1.1435 0.84703-2.8799 1.3129-1.694 0.50821-3.8963 0.50821z" fill="url(#linearGradient2733)" stroke="#f0f0f0" stroke-width=".25966"/>
      </g>
      <g transform="matrix(.26692 0 0 .26692 -56.005 -206.83)" aria-label="store">
       <path d="m230.92 967.72q-2.3293 0-4.3622-0.71997-1.9905-0.71997-3.5151-2.1176-1.4823-1.3976-2.3717-3.3881-0.84702-2.0328-0.84702-4.6163 0-2.4987 0.84702-4.4892 0.88937-1.9905 2.3293-3.3881 1.4823-1.3976 3.3457-2.1176 1.9058-0.76232 3.981-0.76232 2.2023 0 3.9387 0.71996 1.7787 0.67762 2.9646 1.9482 1.2282 1.2705 1.8634 3.0493 0.63527 1.7788 0.63527 3.9386 0 0.59292-0.0424 1.1435-0.0423 0.55057-0.12705 0.97408h-16.22q0.3388 3.5151 2.5411 5.2939 2.2446 1.7364 5.4633 1.7364 1.8634 0 3.3457-0.50821 1.5246-0.55057 2.9222-1.4399l1.2705 2.287q-1.5246 1.0164-3.5151 1.7364-1.9482 0.71997-4.4469 0.71997zm-0.50821-18.846q-1.2705 0-2.4564 0.42351-1.1435 0.42351-2.0752 1.2282-0.93172 0.76232-1.567 1.9482t-0.88937 2.7105h13.129q-0.21175-3.1763-1.8634-4.7433-1.6093-1.567-4.2775-1.567z" fill="url(#linearGradient2735)" stroke="#f0f0f0" stroke-width=".25966"/>
      </g>
      <g transform="matrix(.26692 0 0 .26692 -33.081 -206.82)" aria-label="store">
       <path d="m108.15 967.21v-20.583h3.1811l-5e-3 4.8704h0.12705c1.0729-1.6658 2.3858-2.9787 3.9386-3.9386 1.5811-0.95995 3.3316-1.4399 5.2515-1.4399 0.76232 0 1.4682 0.0706 2.1176 0.21175 0.64939 0.11294 1.2988 0.3247 1.9482 0.63527l-0.80467 3.0069c-0.73409-0.25411-1.3552-0.43763-1.8634-0.55057-0.47998-0.11293-1.1294-0.1694-1.9482-0.1694-1.5529 0-3.0493 0.45174-4.4892 1.3552-1.4117 0.87526-2.7387 2.3858-3.981 4.5316v12.07z" fill="url(#linearGradient2737)" stroke="#f0f0f0" stroke-width=".25966"/>
      </g>
      <g transform="matrix(.26692 0 0 .26692 -39.674 -206.82)" aria-label="store">
       <path d="m113.68 967.72q-2.0328 0-3.8963-0.71997-1.8211-0.71997-3.2187-2.0752-1.3976-1.3976-2.2446-3.3881-0.80467-2.0328-0.80467-4.5739 0-2.5834 0.80467-4.5739 0.84702-2.0328 2.2446-3.4304t3.2187-2.1176q1.8634-0.71996 3.8963-0.71996t3.854 0.71996q1.8634 0.71997 3.261 2.1176 1.3976 1.3976 2.2023 3.4304 0.84702 1.9905 0.84702 4.5739 0 2.5411-0.84702 4.5739-0.80467 1.9905-2.2023 3.3881-1.3976 1.3552-3.261 2.0752-1.8211 0.71997-3.854 0.71997zm0-2.8799q1.4823 0 2.6681-0.55057 1.2282-0.59291 2.0752-1.6093 0.88938-1.0588 1.3552-2.4987 0.46586-1.4399 0.46586-3.2187 0-1.7787-0.46586-3.2187-0.46586-1.4823-1.3552-2.5411-0.84702-1.0588-2.0752-1.6093-1.1858-0.59292-2.6681-0.59292t-2.7105 0.59292q-1.1858 0.55056-2.0752 1.6093-0.84702 1.0588-1.3129 2.5411-0.46587 1.4399-0.46587 3.2187 0 1.7788 0.46587 3.2187 0.46586 1.4399 1.3129 2.4987 0.88937 1.0164 2.0752 1.6093 1.2282 0.55057 2.7105 0.55057z" fill="url(#linearGradient2739)" stroke="#f0f0f0" stroke-width=".25966"/>
      </g>
      <g transform="matrix(.26692 0 0 .26692 -58.23 -206.97)" aria-label="store">
       <path d="m157.45 967.72c-1.4964 0-2.7528-0.19764-3.7692-0.59292-1.0164-0.42351-1.8352-1.0023-2.4564-1.7364-0.62115-0.76232-1.0729-1.6658-1.3552-2.7105-0.25411-1.0447-0.38116-2.2023-0.38116-3.4728v-9.7408h-5.8021v-2.8197h5.9292l0.0264-6.6246h3.3193v6.6246h10.122v2.8197h-10.122v9.7831c0 0.93173 0.0847 1.7505 0.25411 2.4564 0.1694 0.67761 0.45174 1.2564 0.84702 1.7364 0.39527 0.47998 0.93172 0.84702 1.6093 1.1011 0.67762 0.22587 1.5105 0.33881 2.4987 0.33881s1.8776-0.0847 2.6681-0.25411 1.5529-0.39528 2.287-0.67762l0.76232 2.5411c-0.93172 0.33881-1.9199 0.62115-2.9646 0.84702-1.0164 0.25411-2.174 0.38116-3.4728 0.38116z" fill="url(#linearGradient2741)" stroke="#f0f0f0" stroke-width=".25966"/>
      </g>
     </g>
     <g>
      <rect x="-30.354" y="45.753" width=".86391" height=".86391"/>
      <rect x="-31.288" y="45.753" width=".86391" height=".86391"/>
      <rect x="-33.159" y="43.883" width=".86391" height=".86391"/>
      <rect x="-32.225" y="43.883" width=".86391" height=".86391"/>
     </g>
    </g>
    <g>
     <rect x="-31.287" y="50.434" width=".86391" height=".86391" fill="#00affa"/>
     <rect x="-33.156" y="44.819" width=".86391" height=".86391" fill="#0096d6"/>
     <rect x="-33.156" y="45.755" width=".86391" height=".86391" fill="#0092d0"/>
     <rect x="-33.156" y="46.691" width=".86391" height=".86391" fill="#009ee0"/>
     <rect x="-33.156" y="47.627" width=".86391" height=".86391" fill="#00a1e5"/>
     <rect x="-33.156" y="48.562" width=".86391" height=".86391" fill="#00a5eb"/>
     <rect x="-33.156" y="49.495" width=".86391" height=".86391" fill="#00a9f0"/>
    </g>
    <g fill="#0092d0">
     <rect x="-32.223" y="44.819" width=".86391" height=".86391"/>
     <rect x="-32.223" y="45.755" width=".86391" height=".86391"/>
     <rect x="-32.223" y="46.691" width=".86391" height=".86391"/>
     <rect x="-32.223" y="47.627" width=".86391" height=".86391"/>
     <rect x="-32.223" y="48.562" width=".86391" height=".86391"/>
    </g>
    <rect x="-32.223" y="49.498" width=".86391" height=".86391" fill="#00a9f0"/>
    <rect x="-32.223" y="50.434" width=".86391" height=".86391" fill="#00acf5"/>
    <g fill="#0092d0">
     <rect x="-34.092" y="45.751" width=".86391" height=".86391"/>
     <rect x="-35.026" y="45.751" width=".86391" height=".86391"/>
     <rect x="-38.503" y="45.774" width=".86391" height=".86391"/>
     <rect x="-38.503" y="47.646" width=".86391" height=".86391"/>
     <rect x="-38.503" y="48.582" width=".86391" height=".86391"/>
     <rect x="-38.503" y="49.518" width=".86391" height=".86391"/>
    </g>
    <rect x="-38.503" y="50.453" width=".86391" height=".86391" fill="#00a5eb"/>
    <rect x="-39.437" y="45.774" width=".86391" height=".86391" fill="#0092d0"/>
    <g fill="#00a5eb">
     <rect x="-39.437" y="47.646" width=".86391" height=".86391"/>
     <rect x="-39.437" y="48.582" width=".86391" height=".86391"/>
     <rect x="-39.437" y="49.518" width=".86391" height=".86391"/>
     <rect x="-39.437" y="50.453" width=".86391" height=".86391"/>
    </g>
    <g transform="matrix(.28222 0 0 .28222 -57.486 -353.01)" fill="#fff">
     <path d="m36.487 1411.2-2.6096 1.5155v3.0614l2.6096-1.5189z"/>
     <path d="m39.322 1409.6-2.6097 1.5155v3.0614l2.6097-1.5189z"/>
     <path d="m42.156 1407.9-2.6096 1.5155v3.0614l2.6096-1.5189z"/>
     <path d="m44.991 1406.3-2.6096 1.5155v3.0614l2.6096-1.5189z"/>
     <path d="m47.827 1404.6-2.6096 1.5155v3.0614l2.6096-1.5189z"/>
     <path d="m36.487 1414.6-2.6096 1.5155v3.0614l2.6096-1.5189z"/>
     <path d="m39.322 1412.9-2.6097 1.5155v3.0614l2.6097-1.5189z"/>
     <path d="m47.827 1408-2.6096 1.5155v3.0614l2.6096-1.5189z"/>
     <path d="m50.661 1406.3-2.6096 1.5155v3.0614l2.6096-1.5189z"/>
     <path d="m36.487 1417.9-2.6096 1.5155v3.0614l2.6096-1.5189z"/>
     <path d="m39.322 1416.2-2.6097 1.5155v3.0614l2.6097-1.5189z"/>
     <path d="m47.827 1411.3-2.6096 1.5155v3.0614l2.6096-1.5189z"/>
     <path d="m50.661 1409.7-2.6096 1.5155v3.0614l2.6096-1.5189z"/>
     <path d="m47.827 1414.6-2.6096 1.5155v3.0614l2.6096-1.5189z"/>
     <path d="m50.661 1413-2.6096 1.5155v3.0614l2.6096-1.5189z"/>
     <path d="m42.148 1421.3-2.6096 1.5155v3.0614l2.6096-1.5189z"/>
     <path d="m44.991 1419.6-2.6096 1.5155v3.0614l2.6096-1.5189z"/>
     <path d="m47.827 1417.9-2.6096 1.5155v3.0614l2.6096-1.5189z"/>
     <path d="m36.487 1427.9-2.6096 1.5155v3.0614l2.6096-1.5189z"/>
     <path d="m39.322 1426.2-2.6097 1.5155v3.0614l2.6097-1.5189z"/>
     <path d="m47.827 1421.3-2.6096 1.5155v3.0614l2.6096-1.5189z"/>
     <path d="m50.661 1419.6-2.6096 1.5155v3.0614l2.6096-1.5189z"/>
     <path d="m47.827 1424.6-2.6096 1.5155v3.0614l2.6096-1.5189z"/>
     <path d="m50.661 1423-2.6096 1.5155v3.0614l2.6096-1.5189z"/>
     <path d="m47.827 1427.9-2.6096 1.5155v3.0614l2.6096-1.5189z"/>
     <path d="m50.661 1426.3-2.6096 1.5155v3.0614l2.6096-1.5189z"/>
     <path d="m36.487 1437.8-2.6096 1.5155v3.0614l2.6096-1.5189z"/>
     <path d="m39.322 1436.2-2.6097 1.5155v3.0614l2.6097-1.5189z"/>
     <path d="m42.156 1434.5-2.6096 1.5155v3.0614l2.6096-1.5189z"/>
     <path d="m44.991 1432.9-2.6096 1.5155v3.0614l2.6096-1.5189z"/>
     <path d="m47.827 1431.3-2.6096 1.5155v3.0614l2.6096-1.5189z"/>
     <path d="m50.661 1429.6-2.6096 1.5155v3.0614l2.6096-1.5189z"/>
     <path d="m30.926 1411.2 2.6586 1.5155v3.0614l-2.6586-1.5189z"/>
     <path d="m30.926 1414.5 2.6586 1.5155v3.0614l-2.6586-1.5189z"/>
     <path d="m30.926 1417.9 2.6586 1.5155v3.0614l-2.6586-1.5189z"/>
     <path d="m30.926 1421.2 2.6586 1.5155v3.0614l-2.6586-1.5189z"/>
     <path d="m30.926 1424.5 2.6586 1.5155v3.0614l-2.6586-1.5189z"/>
     <path d="m30.926 1427.8 2.6586 1.5155v3.0614l-2.6586-1.5189z"/>
     <path d="m30.926 1431.2 2.6586 1.5155v3.0614l-2.6586-1.5189z"/>
     <path d="m30.926 1434.5 2.6586 1.5155v3.0614l-2.6586-1.5189z"/>
     <path d="m30.926 1437.8 2.6586 1.5155v3.0614l-2.6586-1.5189z"/>
     <path d="m36.378 1411.1-2.6111 1.513-2.6575-1.5198 2.614-1.5113z"/>
     <path d="m39.214 1409.4-2.611 1.513-2.6576-1.5198 2.6141-1.5113z"/>
     <path d="m42.051 1407.8-2.6111 1.5129-2.6575-1.5197 2.614-1.5113z"/>
     <path d="m44.894 1406.1-2.6111 1.5129-2.6575-1.5198 2.614-1.5112z"/>
     <path d="m47.731 1404.5-2.611 1.513-2.6576-1.5198 2.6141-1.5113z"/>
     <path d="m48.052 1404.5v3.0614l2.6096-1.5189z"/>
     <path d="m42.268 1417.8 2.6096 1.5425-2.6182 1.5272-2.6097-1.5425z"/>
     <path d="m42.382 1414.6 2.6096 1.5425v3.0513l-2.6096-1.5425z"/>
     <path d="m44.991 1412.9-2.5075 1.4597 2.5075 1.4708z"/>
     <path d="m48.052 1417.8v3.0614l2.6096-1.5189z"/>
     <path d="m39.532 1419.6v2.9149l2.4833-1.442z"/>
     <path d="m42.268 1431.1 2.6096 1.5425-2.6182 1.5272-2.6097-1.5425z"/>
     <path d="m42.382 1424.6 2.6096 1.5425v3.0513l-2.6096-1.5425z"/>
     <path d="m44.991 1422.9-2.5075 1.4597 2.5075 1.4708z"/>
     <path d="m42.382 1427.9 2.6096 1.5425v3.0513l-2.6096-1.5425z"/>
     <path d="m36.487 1431.2-2.6096 1.5155v3.0614l2.6096-1.5189z"/>
     <path d="m39.322 1429.5-2.6097 1.5155v3.0614l2.6097-1.5189z"/>
     <path d="m36.487 1434.5-2.6096 1.5155v3.0614l2.6096-1.5189z"/>
     <path d="m39.322 1432.9-2.6097 1.5155v3.0614l2.6097-1.5189z"/>
     <path d="m36.487 1421.3-2.6096 1.5155v3.0614l2.6096-1.5189z"/>
     <path d="m39.322 1419.7-2.6097 1.5155v3.0614l2.6097-1.5189z"/>
     <path d="m36.487 1424.6-2.6096 1.5155v3.0614l2.6096-1.5189z"/>
     <path d="m39.322 1423-2.6097 1.5155v3.0614l2.6097-1.5189z"/>
     <path d="m39.532 1432.9v2.9149l2.4833-1.442z"/>
     <path d="m42.382 1411.3 2.6096 1.5425v3.0513l-2.6096-1.5425z"/>
     <path d="m44.991 1409.6-2.5075 1.4597 2.5075 1.4708z"/>
    </g>
   </g>
  </g>
 </g>
</svg>
