<?xml version="1.0" encoding="UTF-8"?>
<svg width="120" height="40" version="1.1" viewBox="0 0 112.5 37.5" xmlns="http://www.w3.org/2000/svg">
 <text x="87.504463" y="-86.804604" fill="#000000" font-family="purisa" font-size="25px" letter-spacing="0px" stroke-width=".9375" word-spacing="0px" style="line-height:1.25" xml:space="preserve"><tspan x="87.504463" y="-63.679604" stroke-width=".9375"/></text>
 <g transform="matrix(.5222 0 0 .5222 7.597 .0015144)">
  <path d="m7.601 10.574c0.031848-0.28674 0.28672-0.41416 0.47786-0.41416s4.3647-0.31858 4.3647-0.31858 2.899-2.899 3.2495-3.1858c0.31858-0.31858 0.92387-0.22298 1.1787-0.15927 0.03185 0 0.63717 0.19115 1.6247 0.50971 0.9876-2.8353 2.676-5.4159 5.7026-5.4159h0.28672c0.82829-1.0832 1.9115-1.5929 2.8035-1.5929 7.0086 0 10.386 8.7608 11.437 13.221 2.7398 0.86017 4.6831 1.4336 4.9062 1.5292 1.5292 0.47789 1.561 0.50971 1.7522 1.9433 0.15929 1.0831 4.1416 31.889 4.1416 31.889l-30.997 5.798-16.821-3.6319c-0.031848-0.06371 5.862-39.887 5.8938-40.171zm12.616-3.122c0.76459 0.22298 1.6885 0.50971 2.6123 0.82829v-0.57344c0-1.7203 0.223-3.122 0.63717-4.2371-1.5929 0.19115-2.5805 1.9433-3.2495 3.9822zm5.1928-3.6319c-0.41416 1.0832-0.70086 2.6123-0.70086 4.715v0.31858c1.7203 0.54155 3.5361 1.0831 5.4159 1.6884-1.0513-4.014-3.0583-5.9892-4.715-6.722zm2.0389-1.9752c-0.31858 0-0.63717 0.12743-0.89202 0.31858 2.2619 1.0513 4.6513 3.6955 5.6389 9.0475 1.4973 0.47786 2.9309 0.89202 4.3007 1.338-1.1469-4.0777-4.014-10.704-9.0475-10.704z" fill="#00a9f0" stroke-width=".31858"/>
  <path d="m8.0765 10.095c0.19115 0 4.3647-0.31858 4.3647-0.31858s2.899-2.899 3.2495-3.1858c0.12743-0.12743 0.28672-0.19115 0.41416-0.19115l2.3256 47.977-16.821-3.6319s5.8938-39.887 5.9256-40.171c0.12743-0.28674 0.35043-0.41416 0.54159-0.47789z" fill="#0079ad" stroke-width=".31858"/>
  <g fill="#fff">
   <g transform="matrix(.34208 0 0 .34208 -134.51 -176.08)">
    <g stroke="#f0f0f0" stroke-width=".25966">
     <g transform="matrix(2.4347,0,0,2.4347,368.98,-1718.1)" aria-label="store">
      <path d="m128.5 967.72q-3.0493 0-5.6327-0.93172-2.5834-0.97408-4.4892-2.287l1.6093-2.287q1.7787 1.2705 3.8963 2.0328 2.1599 0.76232 5.0398 0.76232 2.6258 0 3.8963-0.93172 1.3129-0.97408 1.3129-2.287 0-0.59292-0.21175-1.1011-0.21176-0.50821-0.93173-0.97407-0.67762-0.46587-1.9482-0.88938t-3.3457-0.84702q-4.0234-0.84702-6.0562-2.2446-1.9905-1.4399-1.9905-3.7692 0-1.2282 0.55056-2.287 0.55057-1.1011 1.6094-1.8634 1.1011-0.80467 2.6681-1.2282 1.6094-0.46586 3.7269-0.46586 2.3717 0 4.5739 0.80467 2.2022 0.76232 3.7269 1.8211l-1.694 2.2446q-1.4399-0.97407-3.1763-1.567-1.7364-0.59291-3.7269-0.59291-2.6258 0-3.6845 0.88937-1.0588 0.88937-1.0588 2.0752 0 1.3552 1.3976 2.0752 1.3976 0.67761 4.5739 1.3552 2.5834 0.55056 4.2351 1.1858 1.6517 0.59292 2.5834 1.3552 0.97407 0.76231 1.3129 1.694 0.38116 0.93172 0.38116 2.1176 0 1.2705-0.59291 2.3717-0.59292 1.1011-1.7788 1.9482-1.1435 0.84703-2.8799 1.3129-1.694 0.50821-3.8963 0.50821z" fill="#fff" stroke="#f0f0f0" stroke-width=".25966"/>
     </g>
     <g transform="matrix(2.4347,0,0,2.4347,396.48,-1718.1)" aria-label="store">
      <path d="m230.92 967.72q-2.3293 0-4.3622-0.71997-1.9905-0.71997-3.5151-2.1176-1.4823-1.3976-2.3717-3.3881-0.84702-2.0328-0.84702-4.6163 0-2.4987 0.84702-4.4892 0.88937-1.9905 2.3293-3.3881 1.4823-1.3976 3.3457-2.1176 1.9058-0.76232 3.981-0.76232 2.2023 0 3.9387 0.71996 1.7787 0.67762 2.9646 1.9482 1.2282 1.2705 1.8634 3.0493 0.63527 1.7788 0.63527 3.9386 0 0.59292-0.0424 1.1435-0.0423 0.55057-0.12705 0.97408h-16.22q0.3388 3.5151 2.5411 5.2939 2.2446 1.7364 5.4633 1.7364 1.8634 0 3.3457-0.50821 1.5246-0.55057 2.9222-1.4399l1.2705 2.287q-1.5246 1.0164-3.5151 1.7364-1.9482 0.71997-4.4469 0.71997zm-0.50821-18.846q-1.2705 0-2.4564 0.42351-1.1435 0.42351-2.0752 1.2282-0.93172 0.76232-1.567 1.9482t-0.88937 2.7105h13.129q-0.21175-3.1763-1.8634-4.7433-1.6093-1.567-4.2775-1.567z" fill="#fff" stroke="#f0f0f0" stroke-width=".25966"/>
     </g>
     <g transform="matrix(2.4347,0,0,2.4347,605.58,-1718)" aria-label="store">
      <path d="m108.15 967.21v-20.583h3.1811l-5e-3 4.8704h0.12705c1.0729-1.6658 2.3858-2.9787 3.9386-3.9386 1.5811-0.95995 3.3316-1.4399 5.2515-1.4399 0.76232 0 1.4682 0.0706 2.1176 0.21175 0.64939 0.11294 1.2988 0.3247 1.9482 0.63527l-0.80467 3.0069c-0.73409-0.25411-1.3552-0.43763-1.8634-0.55057-0.47998-0.11293-1.1294-0.1694-1.9482-0.1694-1.5529 0-3.0493 0.45174-4.4892 1.3552-1.4117 0.87526-2.7387 2.3858-3.981 4.5316v12.07z" fill="#fff" stroke="#f0f0f0" stroke-width=".25966"/>
     </g>
     <g transform="matrix(2.4347,0,0,2.4347,545.44,-1718.1)" aria-label="store">
      <path d="m113.68 967.72q-2.0328 0-3.8963-0.71997-1.8211-0.71997-3.2187-2.0752-1.3976-1.3976-2.2446-3.3881-0.80467-2.0328-0.80467-4.5739 0-2.5834 0.80467-4.5739 0.84702-2.0328 2.2446-3.4304t3.2187-2.1176q1.8634-0.71996 3.8963-0.71996t3.854 0.71996q1.8634 0.71997 3.261 2.1176 1.3976 1.3976 2.2023 3.4304 0.84702 1.9905 0.84702 4.5739 0 2.5411-0.84702 4.5739-0.80467 1.9905-2.2023 3.3881-1.3976 1.3552-3.261 2.0752-1.8211 0.71997-3.854 0.71997zm0-2.8799q1.4823 0 2.6681-0.55057 1.2282-0.59291 2.0752-1.6093 0.88938-1.0588 1.3552-2.4987 0.46586-1.4399 0.46586-3.2187 0-1.7787-0.46586-3.2187-0.46586-1.4823-1.3552-2.5411-0.84702-1.0588-2.0752-1.6093-1.1858-0.59292-2.6681-0.59292t-2.7105 0.59292q-1.1858 0.55056-2.0752 1.6093-0.84702 1.0588-1.3129 2.5411-0.46587 1.4399-0.46587 3.2187t0.46587 3.2187q0.46586 1.4399 1.3129 2.4987 0.88937 1.0164 2.0752 1.6093 1.2282 0.55057 2.7105 0.55057z" fill="#fff" stroke="#f0f0f0" stroke-width=".25966"/>
     </g>
     <g transform="matrix(2.4347,0,0,2.4347,376.18,-1719.4)" aria-label="store">
      <path d="m157.45 967.72c-1.4964 0-2.7528-0.19764-3.7692-0.59292-1.0164-0.42351-1.8352-1.0023-2.4564-1.7364-0.62115-0.76232-1.0729-1.6658-1.3552-2.7105-0.25411-1.0447-0.38116-2.2023-0.38116-3.4728v-9.7408h-5.8021v-2.8197h5.9292l0.0264-6.6246h3.3193v6.6246h10.122v2.8197h-10.122v9.7831c0 0.93173 0.0847 1.7505 0.25411 2.4564 0.1694 0.67761 0.45174 1.2564 0.84702 1.7364 0.39527 0.47998 0.93172 0.84702 1.6093 1.1011 0.67762 0.22587 1.5105 0.33881 2.4987 0.33881s1.8776-0.0847 2.6681-0.25411 1.5529-0.39528 2.287-0.67762l0.76232 2.5411c-0.93172 0.33881-1.9199 0.62115-2.9646 0.84702-1.0164 0.25411-2.174 0.38116-3.4728 0.38116z" fill="#fff" stroke="#f0f0f0" stroke-width=".25966"/>
     </g>
    </g>
    <rect x="630.45" y="585.82" width="7.8802" height="7.8802"/>
    <rect x="621.93" y="585.82" width="7.8802" height="7.8802"/>
    <rect x="604.86" y="568.76" width="7.8802" height="7.8802"/>
    <rect x="613.38" y="568.76" width="7.8802" height="7.8802"/>
   </g>
   <g transform="matrix(.34208 0 0 .34208 -134.51 -176.08)">
    <rect x="621.94" y="628.52" width="7.8802" height="7.8802"/>
    <rect x="604.89" y="577.3" width="7.8802" height="7.8802"/>
    <rect x="604.89" y="585.84" width="7.8802" height="7.8802"/>
    <rect x="604.89" y="594.38" width="7.8802" height="7.8802"/>
    <rect x="604.89" y="602.91" width="7.8802" height="7.8802"/>
    <rect x="604.89" y="611.45" width="7.8802" height="7.8802"/>
    <rect x="604.89" y="619.95" width="7.8802" height="7.8802"/>
   </g>
   <g transform="matrix(.34208 0 0 .34208 -134.51 -176.08)">
    <rect x="613.4" y="577.3" width="7.8802" height="7.8802"/>
    <rect x="613.4" y="585.84" width="7.8802" height="7.8802"/>
    <rect x="613.4" y="594.38" width="7.8802" height="7.8802"/>
    <rect x="613.4" y="602.91" width="7.8802" height="7.8802"/>
    <rect x="613.4" y="611.45" width="7.8802" height="7.8802"/>
   </g>
   <rect x="75.324" y="36.001" width="2.6957" height="2.6957" stroke-width=".34208"/>
   <rect x="75.324" y="38.923" width="2.6957" height="2.6957" stroke-width=".34208"/>
   <g transform="matrix(.34208 0 0 .34208 -134.51 -176.08)">
    <rect x="596.35" y="585.8" width="7.8802" height="7.8802"/>
    <rect x="587.83" y="585.8" width="7.8802" height="7.8802"/>
    <rect x="556.12" y="586.01" width="7.8802" height="7.8802"/>
    <rect x="556.12" y="603.09" width="7.8802" height="7.8802"/>
    <rect x="556.12" y="611.62" width="7.8802" height="7.8802"/>
    <rect x="556.12" y="620.16" width="7.8802" height="7.8802"/>
   </g>
   <rect x="55.729" y="38.984" width="2.6957" height="2.6957" stroke-width=".34208"/>
   <rect x="52.814" y="24.38" width="2.6957" height="2.6957" stroke-width=".34208"/>
   <g transform="matrix(.34208 0 0 .34208 -134.51 -176.08)">
    <rect x="547.6" y="603.09" width="7.8802" height="7.8802"/>
    <rect x="547.6" y="611.62" width="7.8802" height="7.8802"/>
    <rect x="547.6" y="620.16" width="7.8802" height="7.8802"/>
    <rect x="547.6" y="628.7" width="7.8802" height="7.8802"/>
   </g>
   <g transform="matrix(.88063 0 0 .88063 -3.5031 -1220)">
    <path d="m36.487 1411.2-2.6096 1.5155v3.0614l2.6096-1.5189z"/>
    <path d="m39.322 1409.6-2.6097 1.5155v3.0614l2.6097-1.5189z"/>
    <path d="m42.156 1407.9-2.6096 1.5155v3.0614l2.6096-1.5189z"/>
    <path d="m44.991 1406.3-2.6096 1.5155v3.0614l2.6096-1.5189z"/>
    <path d="m47.827 1404.6-2.6096 1.5155v3.0614l2.6096-1.5189z"/>
    <path d="m36.487 1414.6-2.6096 1.5155v3.0614l2.6096-1.5189z"/>
    <path d="m39.322 1412.9-2.6097 1.5155v3.0614l2.6097-1.5189z"/>
    <path d="m47.827 1408-2.6096 1.5155v3.0614l2.6096-1.5189z"/>
    <path d="m50.661 1406.3-2.6096 1.5155v3.0614l2.6096-1.5189z"/>
    <path d="m36.487 1417.9-2.6096 1.5155v3.0614l2.6096-1.5189z"/>
    <path d="m39.322 1416.2-2.6097 1.5155v3.0614l2.6097-1.5189z"/>
    <path d="m47.827 1411.3-2.6096 1.5155v3.0614l2.6096-1.5189z"/>
    <path d="m50.661 1409.7-2.6096 1.5155v3.0614l2.6096-1.5189z"/>
    <path d="m47.827 1414.6-2.6096 1.5155v3.0614l2.6096-1.5189z"/>
    <path d="m50.661 1413-2.6096 1.5155v3.0614l2.6096-1.5189z"/>
    <path d="m42.148 1421.3-2.6096 1.5155v3.0614l2.6096-1.5189z"/>
    <path d="m44.991 1419.6-2.6096 1.5155v3.0614l2.6096-1.5189z"/>
    <path d="m47.827 1417.9-2.6096 1.5155v3.0614l2.6096-1.5189z"/>
    <path d="m36.487 1427.9-2.6096 1.5155v3.0614l2.6096-1.5189z"/>
    <path d="m39.322 1426.2-2.6097 1.5155v3.0614l2.6097-1.5189z"/>
    <path d="m47.827 1421.3-2.6096 1.5155v3.0614l2.6096-1.5189z"/>
    <path d="m50.661 1419.6-2.6096 1.5155v3.0614l2.6096-1.5189z"/>
    <path d="m47.827 1424.6-2.6096 1.5155v3.0614l2.6096-1.5189z"/>
    <path d="m50.661 1423-2.6096 1.5155v3.0614l2.6096-1.5189z"/>
    <path d="m47.827 1427.9-2.6096 1.5155v3.0614l2.6096-1.5189z"/>
    <path d="m50.661 1426.3-2.6096 1.5155v3.0614l2.6096-1.5189z"/>
    <path d="m36.487 1437.8-2.6096 1.5155v3.0614l2.6096-1.5189z"/>
    <path d="m39.322 1436.2-2.6097 1.5155v3.0614l2.6097-1.5189z"/>
    <path d="m42.156 1434.5-2.6096 1.5155v3.0614l2.6096-1.5189z"/>
    <path d="m44.991 1432.9-2.6096 1.5155v3.0614l2.6096-1.5189z"/>
    <path d="m47.827 1431.3-2.6096 1.5155v3.0614l2.6096-1.5189z"/>
    <path d="m50.661 1429.6-2.6096 1.5155v3.0614l2.6096-1.5189z"/>
    <path d="m30.926 1411.2 2.6586 1.5155v3.0614l-2.6586-1.5189z"/>
    <path d="m30.926 1414.5 2.6586 1.5155v3.0614l-2.6586-1.5189z"/>
    <path d="m30.926 1417.9 2.6586 1.5155v3.0614l-2.6586-1.5189z"/>
    <path d="m30.926 1421.2 2.6586 1.5155v3.0614l-2.6586-1.5189z"/>
    <path d="m30.926 1424.5 2.6586 1.5155v3.0614l-2.6586-1.5189z"/>
    <path d="m30.926 1427.8 2.6586 1.5155v3.0614l-2.6586-1.5189z"/>
    <path d="m30.926 1431.2 2.6586 1.5155v3.0614l-2.6586-1.5189z"/>
    <path d="m30.926 1434.5 2.6586 1.5155v3.0614l-2.6586-1.5189z"/>
    <path d="m30.926 1437.8 2.6586 1.5155v3.0614l-2.6586-1.5189z"/>
    <path d="m36.378 1411.1-2.6111 1.513-2.6575-1.5198 2.614-1.5113z"/>
    <path d="m39.214 1409.4-2.611 1.513-2.6576-1.5198 2.6141-1.5113z"/>
    <path d="m42.051 1407.8-2.6111 1.5129-2.6575-1.5197 2.614-1.5113z"/>
    <path d="m44.894 1406.1-2.6111 1.5129-2.6575-1.5198 2.614-1.5112z"/>
    <path d="m47.731 1404.5-2.611 1.513-2.6576-1.5198 2.6141-1.5113z"/>
    <path d="m48.052 1404.5v3.0614l2.6096-1.5189z"/>
    <path d="m42.268 1417.8 2.6096 1.5425-2.6182 1.5272-2.6097-1.5425z"/>
    <path d="m42.382 1414.6 2.6096 1.5425v3.0513l-2.6096-1.5425z"/>
    <path d="m44.991 1412.9-2.5075 1.4597 2.5075 1.4708z"/>
    <path d="m48.052 1417.8v3.0614l2.6096-1.5189z"/>
    <path d="m39.532 1419.6v2.9149l2.4833-1.442z"/>
    <path d="m42.268 1431.1 2.6096 1.5425-2.6182 1.5272-2.6097-1.5425z"/>
    <path d="m42.382 1424.6 2.6096 1.5425v3.0513l-2.6096-1.5425z"/>
    <path d="m44.991 1422.9-2.5075 1.4597 2.5075 1.4708z"/>
    <path d="m42.382 1427.9 2.6096 1.5425v3.0513l-2.6096-1.5425z"/>
    <path d="m36.487 1431.2-2.6096 1.5155v3.0614l2.6096-1.5189z"/>
    <path d="m39.322 1429.5-2.6097 1.5155v3.0614l2.6097-1.5189z"/>
    <path d="m36.487 1434.5-2.6096 1.5155v3.0614l2.6096-1.5189z"/>
    <path d="m39.322 1432.9-2.6097 1.5155v3.0614l2.6097-1.5189z"/>
    <path d="m36.487 1421.3-2.6096 1.5155v3.0614l2.6096-1.5189z"/>
    <path d="m39.322 1419.7-2.6097 1.5155v3.0614l2.6097-1.5189z"/>
    <path d="m36.487 1424.6-2.6096 1.5155v3.0614l2.6096-1.5189z"/>
    <path d="m39.322 1423-2.6097 1.5155v3.0614l2.6097-1.5189z"/>
    <path d="m39.532 1432.9v2.9149l2.4833-1.442z"/>
    <path d="m42.382 1411.3 2.6096 1.5425v3.0513l-2.6096-1.5425z"/>
    <path d="m44.991 1409.6-2.5075 1.4597 2.5075 1.4708z"/>
   </g>
  </g>
 </g>
</svg>
